<svg width="488" height="560" viewBox="0 0 488 560" fill="none" xmlns="http://www.w3.org/2000/svg">
<path fill-rule="evenodd" clip-rule="evenodd" d="M10.0267 7.77032C10.0411 7.74639 10.0553 7.72234 10.0693 7.69805C11.45 5.30669 10.6306 2.24871 8.23914 0.867974C5.84766 -0.512763 2.78974 0.306695 1.409 2.69805C0.0282636 5.08953 0.847661 8.14752 3.23914 9.52825C3.91498 9.91839 4.64405 10.1329 5.37342 10.1858V549.953C3.83716 550.116 2.39728 550.986 1.56574 552.426C0.185002 554.818 1.0044 557.876 3.39588 559.256C5.78736 560.637 8.84528 559.818 10.226 557.426C11.0051 556.077 11.0837 554.515 10.5747 553.163L478.087 283.244C478.475 283.75 478.967 284.19 479.553 284.528C481.945 285.909 485.003 285.09 486.383 282.698C487.764 280.307 486.945 277.249 484.553 275.868C482.162 274.487 479.104 275.307 477.723 277.698C477.709 277.722 477.695 277.747 477.682 277.771L10.0267 7.77032ZM477.283 278.695L9.42536 8.57781C8.61469 9.46368 7.52478 10.0099 6.37342 10.158L6.37348 549.948C7.06543 550.014 7.75458 550.226 8.39588 550.596C9.12659 551.018 9.71052 551.596 10.1298 552.265L477.56 282.394C477.008 281.261 476.891 279.936 477.283 278.695Z" fill="#F2F2F2"/>
</svg>
